<?xml version="1.0"?>
<svg version="1.1" xmlns="http://www.w3.org/2000/svg" width="220" height="75" style=""><path fill="#0f98fa" d="M39.556640625,38.490234375q0,6.345703125-3.6123046875,9.720703125t-10.4326171875,3.375l-7.27734375,0l0-25.69921875l8.068359375,0q6.29296875,0,9.7734375,3.322265625t3.48046875,9.28125z M33.896484375,38.630859375q0-8.279296875-7.3125-8.279296875l-2.900390625,0l0,16.734375l2.337890625,0q7.875,0,7.875-8.455078125z M51.20689453125,41.724609375q0,2.91796875,0.9580078125,4.412109375t3.1201171875,1.494140625q2.14453125,0,3.0849609375-1.4853515625t0.9404296875-4.4208984375q0-2.91796875-0.94921875-4.376953125t-3.111328125-1.458984375q-2.14453125,0-3.09375,1.4501953125t-0.94921875,4.3857421875z M64.79478515625,41.724609375q0,4.798828125-2.53125,7.505859375t-7.048828125,2.70703125q-2.830078125,0-4.9921875-1.2392578125t-3.322265625-3.5595703125t-1.16015625-5.4140625q0-4.81640625,2.513671875-7.48828125t7.06640625-2.671875q2.830078125,0,4.9921875,1.23046875t3.322265625,3.533203125t1.16015625,5.396484375z M79.6794140625,51.9375q-9.17578125,0-9.17578125-10.072265625q0-5.009765625,2.49609375-7.6552734375t7.154296875-2.6455078125q3.41015625,0,6.1171875,1.3359375l-1.58203125,4.1484375q-1.265625-0.509765625-2.35546875-0.8349609375t-2.1796875-0.3251953125q-4.18359375,0-4.18359375,5.94140625q0,5.765625,4.18359375,5.765625q1.546875,0,2.865234375-0.4130859375t2.63671875-1.2919921875l0,4.587890625q-1.30078125,0.826171875-2.6279296875,1.142578125t-3.3486328125,0.31640625z M100.96248046875,47.666015625q1.40625,0,3.375-0.615234375l0,3.990234375q-2.00390625,0.896484375-4.921875,0.896484375q-3.216796875,0-4.6845703125-1.6259765625t-1.4677734375-4.8779296875l0-9.474609375l-2.56640625,0l0-2.267578125l2.953125-1.79296875l1.546875-4.1484375l3.427734375,0l0,4.18359375l5.501953125,0l0,4.025390625l-5.501953125,0l0,9.474609375q0,1.142578125,0.6416015625,1.6875t1.6962890625,0.544921875z"/><path fill="#264491" d="M131.007265625,51.5859375l-14.80078125,0l0-25.69921875l14.80078125,0l0,4.46484375l-9.3515625,0l0,5.642578125l8.701171875,0l0,4.46484375l-8.701171875,0l0,6.626953125l9.3515625,0l0,4.5z M150.90166015625,51.5859375l-1.037109375-2.671875l-0.140625,0q-1.353515625,1.705078125-2.7861328125,2.3642578125t-3.7353515625,0.6591796875q-2.830078125,0-4.4560546875-1.6171875t-1.6259765625-4.60546875q0-3.12890625,2.1884765625-4.6142578125t6.6005859375-1.6435546875l3.41015625-0.10546875l0-0.861328125q0-2.98828125-3.05859375-2.98828125q-2.35546875,0-5.537109375,1.423828125l-1.775390625-3.62109375q3.392578125-1.775390625,7.5234375-1.775390625q3.955078125,0,6.064453125,1.72265625t2.109375,5.23828125l0,13.095703125l-3.744140625,0z M149.31962890625,42.48046875l-2.07421875,0.0703125q-2.337890625,0.0703125-3.48046875,0.84375t-1.142578125,2.35546875q0,2.267578125,2.6015625,2.267578125q1.86328125,0,2.9794921875-1.072265625t1.1162109375-2.84765625l0-1.6171875z M176.3507421875,45.75q0,3.0234375-2.1005859375,4.60546875t-6.2841796875,1.58203125q-2.14453125,0-3.65625-0.2900390625t-2.830078125-0.8525390625l0-4.4296875q1.494140625,0.703125,3.3662109375,1.177734375t3.2958984375,0.474609375q2.91796875,0,2.91796875-1.6875q0-0.6328125-0.38671875-1.0283203125t-1.3359375-0.896484375t-2.53125-1.1689453125q-2.267578125-0.94921875-3.3310546875-1.7578125t-1.546875-1.8544921875t-0.4833984375-2.5751953125q0-2.619140625,2.0302734375-4.0517578125t5.7568359375-1.4326171875q3.55078125,0,6.908203125,1.546875l-1.6171875,3.8671875q-1.4765625-0.6328125-2.759765625-1.037109375t-2.619140625-0.404296875q-2.373046875,0-2.373046875,1.283203125q0,0.720703125,0.7646484375,1.248046875t3.3486328125,1.564453125q2.302734375,0.931640625,3.375,1.740234375t1.58203125,1.86328125t0.509765625,2.513671875z M180.19630859375,31.93359375l5.87109375,0l3.708984375,11.056640625q0.474609375,1.44140625,0.650390625,3.41015625l0.10546875,0q0.193359375-1.810546875,0.755859375-3.41015625l3.638671875-11.056640625l5.748046875,0l-8.314453125,22.166015625q-1.142578125,3.076171875-3.2607421875,4.60546875t-4.9482421875,1.529296875q-1.388671875,0-2.724609375-0.298828125l0-4.25390625q0.966796875,0.228515625,2.109375,0.228515625q1.423828125,0,2.4873046875-0.8701171875t1.6611328125-2.6279296875l0.31640625-0.966796875z"/></svg>
