<svg xmlns="http://www.w3.org/2000/svg" version="1.1" xmlns:xlink="http://www.w3.org/1999/xlink" xmlns:svgjs="http://svgjs.com/svgjs" width="1920" height="800" preserveAspectRatio="none" viewBox="0 0 1920 800"><g mask="url(&quot;#SvgjsMask1753&quot;)" fill="none"><rect width="1920" height="800" x="0" y="0" fill="url(#SvgjsLinearGradient1754)"></rect><path d="M486.51 258.98L486.51 263.95L522.4 263.95L522.4 258.98zM513.6 261.47 a8.8 8.8 0 1 0 17.6 0 a8.8 8.8 0 1 0 -17.6 0zM480.23 295.49L478.33 300.08L514.61 315.11L516.52 310.52zM506.76 312.81 a8.8 8.8 0 1 0 17.6 0 a8.8 8.8 0 1 0 -17.6 0zM460.47 326.81L456.96 330.33L485.9 359.27L489.41 355.75zM478.86 357.51 a8.8 8.8 0 1 0 17.6 0 a8.8 8.8 0 1 0 -17.6 0zM430.22 348.19L425.63 350.09L433.87 369.97L438.46 368.07zM427.36 369.02 a8.8 8.8 0 1 0 17.6 0 a8.8 8.8 0 1 0 -17.6 0zM394.1 356.36L389.13 356.36L389.13 383.14L394.1 383.14zM382.81 383.14 a8.8 8.8 0 1 0 17.6 0 a8.8 8.8 0 1 0 -17.6 0zM357.6 350.09L353.01 348.19L335.4 390.7L339.99 392.6zM328.89 391.65 a8.8 8.8 0 1 0 17.6 0 a8.8 8.8 0 1 0 -17.6 0zM326.27 330.33L322.76 326.81L303.77 345.8L307.28 349.32zM296.72 347.56 a8.8 8.8 0 1 0 17.6 0 a8.8 8.8 0 1 0 -17.6 0zM304.9 300.08L302.99 295.49L264.26 311.53L266.16 316.13zM256.41 313.83 a8.8 8.8 0 1 0 17.6 0 a8.8 8.8 0 1 0 -17.6 0zM296.72 263.95L296.72 258.98L271.54 258.98L271.54 263.95zM262.74 261.47 a8.8 8.8 0 1 0 17.6 0 a8.8 8.8 0 1 0 -17.6 0zM302.99 227.45L304.9 222.86L273.52 209.86L271.62 214.46zM263.77 212.16 a8.8 8.8 0 1 0 17.6 0 a8.8 8.8 0 1 0 -17.6 0zM322.76 196.13L326.27 192.61L304.59 170.93L301.07 174.44zM294.03 172.68 a8.8 8.8 0 1 0 17.6 0 a8.8 8.8 0 1 0 -17.6 0zM353.01 174.75L357.6 172.85L345.61 143.92L341.02 145.82zM334.52 144.87 a8.8 8.8 0 1 0 17.6 0 a8.8 8.8 0 1 0 -17.6 0zM389.13 166.58L394.1 166.58L394.1 147.13L389.13 147.13zM382.81 147.13 a8.8 8.8 0 1 0 17.6 0 a8.8 8.8 0 1 0 -17.6 0zM425.63 172.85L430.22 174.75L447.05 134.14L442.46 132.24zM435.95 133.19 a8.8 8.8 0 1 0 17.6 0 a8.8 8.8 0 1 0 -17.6 0zM456.96 192.61L460.47 196.13L482.92 173.68L479.41 170.16zM472.36 171.92 a8.8 8.8 0 1 0 17.6 0 a8.8 8.8 0 1 0 -17.6 0zM478.33 222.86L480.23 227.45L493.74 221.86L491.84 217.27zM483.99 219.56 a8.8 8.8 0 1 0 17.6 0 a8.8 8.8 0 1 0 -17.6 0zM296.69 261.47 a94.92 94.92 0 1 0 189.84 0 a94.92 94.92 0 1 0 -189.84 0z" fill="#488fdb"></path><path d="M482.83 235.18 A93.92479999999999 93.92479999999999 0 0 1 368.97 353.65M368.97 353.65 A189.84959999999998 189.84959999999998 0 0 0 482.83 235.18" fill="#2672c3" fill-rule="nonzero"></path><path d="M350.75 240.71 a18.98 18.98 0 1 0 37.96 0 a18.98 18.98 0 1 0 -37.96 0zM384.06 202.32 a4.75 4.75 0 1 0 9.5 0 a4.75 4.75 0 1 0 -9.5 0zM445.77 257.92 a18.98 18.98 0 1 0 37.96 0 a18.98 18.98 0 1 0 -37.96 0zM383.64 281.93 a8.54 8.54 0 1 0 17.08 0 a8.54 8.54 0 1 0 -17.08 0zM441.08 324.71 a8.54 8.54 0 1 0 17.08 0 a8.54 8.54 0 1 0 -17.08 0zM377.35 338.46 a17.09 17.09 0 1 0 34.18 0 a17.09 17.09 0 1 0 -34.18 0zM297.76 275.04 a5.7 5.7 0 1 0 11.4 0 a5.7 5.7 0 1 0 -11.4 0zM416.16 212.56 a17.09 17.09 0 1 0 34.18 0 a17.09 17.09 0 1 0 -34.18 0zM320.55 249.66 a5.7 5.7 0 1 0 11.4 0 a5.7 5.7 0 1 0 -11.4 0zM353.27 284.2 a5.7 5.7 0 1 0 11.4 0 a5.7 5.7 0 1 0 -11.4 0z" fill="#2672c3" fill-rule="nonzero"></path><path d="M425.71 623.3L425.71 627.02L444.94 627.02L444.94 623.3zM438.34 625.16 a6.6 6.6 0 1 0 13.2 0 a6.6 6.6 0 1 0 -13.2 0zM421 650.67L419.58 654.12L433.7 659.97L435.13 656.52zM427.82 658.25 a6.6 6.6 0 1 0 13.2 0 a6.6 6.6 0 1 0 -13.2 0zM406.18 674.17L403.54 676.8L410.86 684.12L413.5 681.48zM405.58 682.8 a6.6 6.6 0 1 0 13.2 0 a6.6 6.6 0 1 0 -13.2 0zM383.49 690.2L380.05 691.62L392.89 722.63L396.34 721.2zM388.02 721.92 a6.6 6.6 0 1 0 13.2 0 a6.6 6.6 0 1 0 -13.2 0zM356.4 696.33L352.67 696.33L352.67 718.52L356.4 718.52zM347.94 718.52 a6.6 6.6 0 1 0 13.2 0 a6.6 6.6 0 1 0 -13.2 0zM329.02 691.62L325.58 690.2L316.47 712.2L319.91 713.63zM311.59 712.92 a6.6 6.6 0 1 0 13.2 0 a6.6 6.6 0 1 0 -13.2 0zM305.53 676.8L302.9 674.17L291.45 685.61L294.09 688.24zM286.17 686.92 a6.6 6.6 0 1 0 13.2 0 a6.6 6.6 0 1 0 -13.2 0zM289.5 654.12L288.07 650.67L265.67 659.95L267.1 663.4zM259.78 661.67 a6.6 6.6 0 1 0 13.2 0 a6.6 6.6 0 1 0 -13.2 0zM283.37 627.02L283.37 623.3L264.6 623.3L264.6 627.02zM258 625.16 a6.6 6.6 0 1 0 13.2 0 a6.6 6.6 0 1 0 -13.2 0zM288.07 599.65L289.5 596.2L264.61 585.89L263.18 589.34zM257.3 587.61 a6.6 6.6 0 1 0 13.2 0 a6.6 6.6 0 1 0 -13.2 0zM302.9 576.15L305.53 573.52L287.54 555.52L284.9 558.16zM279.62 556.84 a6.6 6.6 0 1 0 13.2 0 a6.6 6.6 0 1 0 -13.2 0zM325.58 560.12L329.02 558.69L325.27 549.63L321.83 551.06zM316.95 550.34 a6.6 6.6 0 1 0 13.2 0 a6.6 6.6 0 1 0 -13.2 0zM352.67 553.99L356.4 553.99L356.4 534.66L352.67 534.66zM347.94 534.66 a6.6 6.6 0 1 0 13.2 0 a6.6 6.6 0 1 0 -13.2 0zM380.05 558.69L383.49 560.12L394.13 534.46L390.68 533.03zM385.8 533.74 a6.6 6.6 0 1 0 13.2 0 a6.6 6.6 0 1 0 -13.2 0zM403.54 573.52L406.18 576.15L414.69 567.64L412.06 565zM406.78 566.32 a6.6 6.6 0 1 0 13.2 0 a6.6 6.6 0 1 0 -13.2 0zM419.58 596.2L421 599.65L443.09 590.5L441.67 587.05zM435.78 588.77 a6.6 6.6 0 1 0 13.2 0 a6.6 6.6 0 1 0 -13.2 0zM283.35 625.16 a71.19 71.19 0 1 0 142.38 0 a71.19 71.19 0 1 0 -142.38 0z" fill="#488fdb"></path><path d="M364.14 695.7 A70.1936 70.1936 0 0 1 288.59 598.34M288.59 598.34 A142.3872 142.3872 0 0 0 364.14 695.7" fill="#2672c3" fill-rule="nonzero"></path><path d="M318.14 682.15 a7.12 7.12 0 1 0 14.24 0 a7.12 7.12 0 1 0 -14.24 0zM316.21 622.03 a14.24 14.24 0 1 0 28.48 0 a14.24 14.24 0 1 0 -28.48 0zM377.42 656.53 a14.24 14.24 0 1 0 28.48 0 a14.24 14.24 0 1 0 -28.48 0zM359.9 617.97 a13.53 13.53 0 1 0 27.06 0 a13.53 13.53 0 1 0 -27.06 0zM356.25 687.14 a7.83 7.83 0 1 0 15.66 0 a7.83 7.83 0 1 0 -15.66 0zM313.03 570.52 a4.98 4.98 0 1 0 9.96 0 a4.98 4.98 0 1 0 -9.96 0zM408.97 614.58 a7.83 7.83 0 1 0 15.66 0 a7.83 7.83 0 1 0 -15.66 0zM355.29 572.85 a14.24 14.24 0 1 0 28.48 0 a14.24 14.24 0 1 0 -28.48 0zM390.31 593.73 a2.85 2.85 0 1 0 5.7 0 a2.85 2.85 0 1 0 -5.7 0zM338.66 661.23 a8.54 8.54 0 1 0 17.08 0 a8.54 8.54 0 1 0 -17.08 0z" fill="#2672c3" fill-rule="nonzero"></path><path d="M1456.38 656.41L1456.38 660.75L1494.26 660.75L1494.26 656.41zM1486.56 658.58 a7.7 7.7 0 1 0 15.4 0 a7.7 7.7 0 1 0 -15.4 0zM1450.89 688.35L1449.23 692.36L1484.71 707.06L1486.38 703.04zM1477.84 705.05 a7.7 7.7 0 1 0 15.4 0 a7.7 7.7 0 1 0 -15.4 0zM1433.6 715.75L1430.52 718.83L1445.42 733.73L1448.49 730.65zM1439.26 732.19 a7.7 7.7 0 1 0 15.4 0 a7.7 7.7 0 1 0 -15.4 0zM1407.13 734.46L1403.11 736.12L1416.16 767.62L1420.18 765.95zM1410.47 766.79 a7.7 7.7 0 1 0 15.4 0 a7.7 7.7 0 1 0 -15.4 0zM1375.52 741.61L1371.17 741.61L1371.17 778.71L1375.52 778.71zM1365.65 778.71 a7.7 7.7 0 1 0 15.4 0 a7.7 7.7 0 1 0 -15.4 0zM1343.58 736.12L1339.56 734.46L1333.16 749.92L1337.18 751.58zM1327.47 750.75 a7.7 7.7 0 1 0 15.4 0 a7.7 7.7 0 1 0 -15.4 0zM1316.17 718.83L1313.1 715.75L1298.61 730.24L1301.68 733.32zM1292.45 731.78 a7.7 7.7 0 1 0 15.4 0 a7.7 7.7 0 1 0 -15.4 0zM1297.47 692.36L1295.8 688.35L1264.29 701.4L1265.95 705.42zM1257.42 703.41 a7.7 7.7 0 1 0 15.4 0 a7.7 7.7 0 1 0 -15.4 0zM1290.32 660.75L1290.32 656.41L1259.22 656.41L1259.22 660.75zM1251.52 658.58 a7.7 7.7 0 1 0 15.4 0 a7.7 7.7 0 1 0 -15.4 0zM1295.8 628.81L1297.47 624.8L1265.67 611.63L1264 615.64zM1257.14 613.63 a7.7 7.7 0 1 0 15.4 0 a7.7 7.7 0 1 0 -15.4 0zM1313.1 601.41L1316.17 598.33L1300.72 582.87L1297.64 585.95zM1291.48 584.41 a7.7 7.7 0 1 0 15.4 0 a7.7 7.7 0 1 0 -15.4 0zM1339.56 582.7L1343.58 581.04L1332.33 553.87L1328.31 555.53zM1322.62 554.7 a7.7 7.7 0 1 0 15.4 0 a7.7 7.7 0 1 0 -15.4 0zM1371.17 575.55L1375.52 575.55L1375.52 542.68L1371.17 542.68zM1365.65 542.68 a7.7 7.7 0 1 0 15.4 0 a7.7 7.7 0 1 0 -15.4 0zM1403.11 581.04L1407.13 582.7L1421.81 547.25L1417.8 545.59zM1412.1 546.42 a7.7 7.7 0 1 0 15.4 0 a7.7 7.7 0 1 0 -15.4 0zM1430.52 598.33L1433.6 601.41L1451.69 583.31L1448.62 580.24zM1442.45 581.77 a7.7 7.7 0 1 0 15.4 0 a7.7 7.7 0 1 0 -15.4 0zM1449.23 624.8L1450.89 628.81L1465.3 622.84L1463.64 618.83zM1456.77 620.84 a7.7 7.7 0 1 0 15.4 0 a7.7 7.7 0 1 0 -15.4 0zM1290.29 658.58 a83.06 83.06 0 1 0 166.12 0 a83.06 83.06 0 1 0 -166.12 0z" fill="#488fdb"></path><path d="M1327.19 727.63 A82.0592 82.0592 0 0 1 1336.47 584.16M1336.47 584.16 A166.1184 166.1184 0 0 0 1327.19 727.63" fill="#2672c3" fill-rule="nonzero"></path><path d="M1363.42 609.75 a16.61 16.61 0 1 0 33.22 0 a16.61 16.61 0 1 0 -33.22 0zM1291.39 670.64 a14.95 14.95 0 1 0 29.9 0 a14.95 14.95 0 1 0 -29.9 0zM1359.74 707.54 a16.61 16.61 0 1 0 33.22 0 a16.61 16.61 0 1 0 -33.22 0zM1297.02 628.3 a10.8 10.8 0 1 0 21.6 0 a10.8 10.8 0 1 0 -21.6 0zM1376.91 670.03 a4.15 4.15 0 1 0 8.3 0 a4.15 4.15 0 1 0 -8.3 0zM1349.29 655.02 a7.48 7.48 0 1 0 14.96 0 a7.48 7.48 0 1 0 -14.96 0zM1417.1 616.43 a12.46 12.46 0 1 0 24.92 0 a12.46 12.46 0 1 0 -24.92 0zM1433.86 670.04 a10.8 10.8 0 1 0 21.6 0 a10.8 10.8 0 1 0 -21.6 0zM1330.51 722.24 a7.48 7.48 0 1 0 14.96 0 a7.48 7.48 0 1 0 -14.96 0zM1424.85 696.31 a3.32 3.32 0 1 0 6.64 0 a3.32 3.32 0 1 0 -6.64 0z" fill="#2672c3" fill-rule="nonzero"></path><path d="M1066.41 514.44L1066.41 519.41L1101.09 519.41L1101.09 514.44zM1092.29 516.93 a8.8 8.8 0 1 0 17.6 0 a8.8 8.8 0 1 0 -17.6 0zM1060.13 550.95L1058.23 555.54L1071.32 560.96L1073.23 556.37zM1063.47 558.66 a8.8 8.8 0 1 0 17.6 0 a8.8 8.8 0 1 0 -17.6 0zM1040.37 582.27L1036.86 585.78L1048.2 597.13L1051.71 593.61zM1041.16 595.37 a8.8 8.8 0 1 0 17.6 0 a8.8 8.8 0 1 0 -17.6 0zM1010.12 603.65L1005.53 605.55L1014.41 626.98L1019 625.08zM1007.91 626.03 a8.8 8.8 0 1 0 17.6 0 a8.8 8.8 0 1 0 -17.6 0zM974 611.82L969.03 611.82L969.03 643.6L974 643.6zM962.71 643.6 a8.8 8.8 0 1 0 17.6 0 a8.8 8.8 0 1 0 -17.6 0zM937.5 605.55L932.9 603.65L922.39 629.03L926.98 630.93zM915.89 629.98 a8.8 8.8 0 1 0 17.6 0 a8.8 8.8 0 1 0 -17.6 0zM906.17 585.78L902.66 582.27L893.52 591.41L897.03 594.93zM886.47 593.17 a8.8 8.8 0 1 0 17.6 0 a8.8 8.8 0 1 0 -17.6 0zM884.8 555.54L882.89 550.95L840.42 568.54L842.33 573.13zM832.57 570.83 a8.8 8.8 0 1 0 17.6 0 a8.8 8.8 0 1 0 -17.6 0zM876.62 519.41L876.62 514.44L834.18 514.44L834.18 519.41zM825.38 516.93 a8.8 8.8 0 1 0 17.6 0 a8.8 8.8 0 1 0 -17.6 0zM882.89 482.91L884.8 478.32L856.81 466.73L854.91 471.32zM847.06 469.02 a8.8 8.8 0 1 0 17.6 0 a8.8 8.8 0 1 0 -17.6 0zM902.66 451.59L906.17 448.07L876.77 418.67L873.26 422.18zM866.21 420.43 a8.8 8.8 0 1 0 17.6 0 a8.8 8.8 0 1 0 -17.6 0zM932.9 430.21L937.5 428.31L923.15 393.66L918.55 395.56zM912.05 394.61 a8.8 8.8 0 1 0 17.6 0 a8.8 8.8 0 1 0 -17.6 0zM969.03 422.04L974 422.04L974 380.3L969.03 380.3zM962.71 380.3 a8.8 8.8 0 1 0 17.6 0 a8.8 8.8 0 1 0 -17.6 0zM1005.53 428.31L1010.12 430.21L1015.57 417.07L1010.97 415.17zM1004.47 416.12 a8.8 8.8 0 1 0 17.6 0 a8.8 8.8 0 1 0 -17.6 0zM1036.86 448.07L1040.37 451.59L1054.26 437.7L1050.74 434.18zM1043.7 435.94 a8.8 8.8 0 1 0 17.6 0 a8.8 8.8 0 1 0 -17.6 0zM1058.23 478.32L1060.13 482.91L1095.4 468.3L1093.5 463.71zM1085.65 466.01 a8.8 8.8 0 1 0 17.6 0 a8.8 8.8 0 1 0 -17.6 0zM876.59 516.93 a94.92 94.92 0 1 0 189.84 0 a94.92 94.92 0 1 0 -189.84 0z" fill="#488fdb"></path><path d="M877.4 529.27 A93.92479999999999 93.92479999999999 0 0 1 1007.7 429.17M1007.7 429.17 A189.84959999999998 189.84959999999998 0 0 0 877.4 529.27" fill="#2672c3" fill-rule="nonzero"></path><path d="M878.48 529.91 a14.24 14.24 0 1 0 28.48 0 a14.24 14.24 0 1 0 -28.48 0zM928.46 556.82 a18.98 18.98 0 1 0 37.96 0 a18.98 18.98 0 1 0 -37.96 0zM1002.72 444.09 a10.44 10.44 0 1 0 20.88 0 a10.44 10.44 0 1 0 -20.88 0zM1001.88 506.89 a18.98 18.98 0 1 0 37.96 0 a18.98 18.98 0 1 0 -37.96 0zM992.18 597.85 a8.54 8.54 0 1 0 17.08 0 a8.54 8.54 0 1 0 -17.08 0zM928.47 439.98 a10.44 10.44 0 1 0 20.88 0 a10.44 10.44 0 1 0 -20.88 0zM890.43 479.97 a18.98 18.98 0 1 0 37.96 0 a18.98 18.98 0 1 0 -37.96 0zM1027.8 559.46 a13.29 13.29 0 1 0 26.58 0 a13.29 13.29 0 1 0 -26.58 0zM943.85 497.37 a3.8 3.8 0 1 0 7.6 0 a3.8 3.8 0 1 0 -7.6 0zM974.79 426.69 a3.8 3.8 0 1 0 7.6 0 a3.8 3.8 0 1 0 -7.6 0z" fill="#2672c3" fill-rule="nonzero"></path><path d="M1583.58 108.6L1583.58 111.71L1607.02 111.71L1607.02 108.6zM1601.52 110.16 a5.5 5.5 0 1 0 11 0 a5.5 5.5 0 1 0 -11 0zM1579.66 131.42L1578.47 134.29L1590.2 139.15L1591.39 136.28zM1585.3 137.71 a5.5 5.5 0 1 0 11 0 a5.5 5.5 0 1 0 -11 0zM1567.3 151L1565.11 153.19L1584.43 172.51L1586.62 170.31zM1580.02 171.41 a5.5 5.5 0 1 0 11 0 a5.5 5.5 0 1 0 -11 0zM1548.4 164.36L1545.53 165.54L1555.49 189.58L1558.36 188.4zM1551.42 188.99 a5.5 5.5 0 1 0 11 0 a5.5 5.5 0 1 0 -11 0zM1525.82 169.47L1522.72 169.47L1522.72 182.24L1525.82 182.24zM1518.77 182.24 a5.5 5.5 0 1 0 11 0 a5.5 5.5 0 1 0 -11 0zM1503.01 165.54L1500.14 164.36L1489.86 189.16L1492.73 190.35zM1485.8 189.76 a5.5 5.5 0 1 0 11 0 a5.5 5.5 0 1 0 -11 0zM1483.43 153.19L1481.23 151L1472.35 159.88L1474.55 162.07zM1467.95 160.98 a5.5 5.5 0 1 0 11 0 a5.5 5.5 0 1 0 -11 0zM1470.07 134.29L1468.88 131.42L1450.08 139.21L1451.27 142.08zM1445.18 140.64 a5.5 5.5 0 1 0 11 0 a5.5 5.5 0 1 0 -11 0zM1464.96 111.71L1464.96 108.6L1444.61 108.6L1444.61 111.71zM1439.11 110.16 a5.5 5.5 0 1 0 11 0 a5.5 5.5 0 1 0 -11 0zM1468.88 88.9L1470.07 86.03L1456.28 80.31L1455.09 83.18zM1450.18 81.75 a5.5 5.5 0 1 0 11 0 a5.5 5.5 0 1 0 -11 0zM1481.23 69.32L1483.43 67.12L1466.23 49.93L1464.04 52.12zM1459.64 51.02 a5.5 5.5 0 1 0 11 0 a5.5 5.5 0 1 0 -11 0zM1500.14 55.96L1503.01 54.77L1494.48 34.19L1491.61 35.37zM1487.55 34.78 a5.5 5.5 0 1 0 11 0 a5.5 5.5 0 1 0 -11 0zM1522.72 50.85L1525.82 50.85L1525.82 43.35L1522.72 43.35zM1518.77 43.35 a5.5 5.5 0 1 0 11 0 a5.5 5.5 0 1 0 -11 0zM1545.53 54.77L1548.4 55.96L1557.28 34.52L1554.41 33.33zM1550.35 33.92 a5.5 5.5 0 1 0 11 0 a5.5 5.5 0 1 0 -11 0zM1565.11 67.12L1567.3 69.32L1577.56 59.07L1575.36 56.87zM1570.96 57.97 a5.5 5.5 0 1 0 11 0 a5.5 5.5 0 1 0 -11 0zM1578.47 86.03L1579.66 88.9L1595.64 82.28L1594.45 79.41zM1589.55 80.84 a5.5 5.5 0 1 0 11 0 a5.5 5.5 0 1 0 -11 0zM1464.94 110.16 a59.33 59.33 0 1 0 118.66 0 a59.33 59.33 0 1 0 -118.66 0z" fill="#488fdb"></path><path d="M1477.05 146.08 A58.328 58.328 0 0 1 1516.65 51.32M1516.65 51.32 A118.656 118.656 0 0 0 1477.05 146.08" fill="#2672c3" fill-rule="nonzero"></path><path d="M1513.18 125.43 a11.87 11.87 0 1 0 23.74 0 a11.87 11.87 0 1 0 -23.74 0zM1492.71 157.87 a4.15 4.15 0 1 0 8.3 0 a4.15 4.15 0 1 0 -8.3 0zM1529.62 71.94 a11.87 11.87 0 1 0 23.74 0 a11.87 11.87 0 1 0 -23.74 0zM1576.26 98.08 a2.97 2.97 0 1 0 5.94 0 a2.97 2.97 0 1 0 -5.94 0zM1513.04 83.88 a3.56 3.56 0 1 0 7.12 0 a3.56 3.56 0 1 0 -7.12 0zM1467.09 101.86 a11.87 11.87 0 1 0 23.74 0 a11.87 11.87 0 1 0 -23.74 0zM1480.11 75.07 a2.97 2.97 0 1 0 5.94 0 a2.97 2.97 0 1 0 -5.94 0zM1473.28 137.73 a6.53 6.53 0 1 0 13.06 0 a6.53 6.53 0 1 0 -13.06 0zM1526.57 97.81 a4.15 4.15 0 1 0 8.3 0 a4.15 4.15 0 1 0 -8.3 0zM1555.95 93.14 a4.15 4.15 0 1 0 8.3 0 a4.15 4.15 0 1 0 -8.3 0z" fill="#2672c3" fill-rule="nonzero"></path><path d="M127.6 359.44L127.6 361.92L150.69 361.92L150.69 359.44zM146.29 360.68 a4.4 4.4 0 1 0 8.8 0 a4.4 4.4 0 1 0 -8.8 0zM124.46 377.69L123.51 379.99L129.89 382.63L130.84 380.33zM125.96 381.48 a4.4 4.4 0 1 0 8.8 0 a4.4 4.4 0 1 0 -8.8 0zM114.58 393.35L112.82 395.11L128.76 411.05L130.52 409.29zM125.24 410.17 a4.4 4.4 0 1 0 8.8 0 a4.4 4.4 0 1 0 -8.8 0zM99.46 404.04L97.16 404.99L106.03 426.39L108.32 425.44zM102.77 425.91 a4.4 4.4 0 1 0 8.8 0 a4.4 4.4 0 1 0 -8.8 0zM81.4 408.13L78.91 408.13L78.91 426.92L81.4 426.92zM75.75 426.92 a4.4 4.4 0 1 0 8.8 0 a4.4 4.4 0 1 0 -8.8 0zM63.14 404.99L60.85 404.04L58.44 409.85L60.74 410.8zM55.19 410.33 a4.4 4.4 0 1 0 8.8 0 a4.4 4.4 0 1 0 -8.8 0zM47.48 395.11L45.73 393.35L29.5 409.58L31.25 411.34zM25.98 410.46 a4.4 4.4 0 1 0 8.8 0 a4.4 4.4 0 1 0 -8.8 0zM36.79 379.99L35.84 377.69L17.11 385.45L18.06 387.75zM13.18 386.6 a4.4 4.4 0 1 0 8.8 0 a4.4 4.4 0 1 0 -8.8 0zM32.71 361.92L32.71 359.44L14.48 359.44L14.48 361.92zM10.08 360.68 a4.4 4.4 0 1 0 8.8 0 a4.4 4.4 0 1 0 -8.8 0zM35.84 343.67L36.79 341.38L18.83 333.94L17.88 336.23zM13.96 335.09 a4.4 4.4 0 1 0 8.8 0 a4.4 4.4 0 1 0 -8.8 0zM45.73 328.01L47.48 326.25L42.33 321.1L40.57 322.86zM37.05 321.98 a4.4 4.4 0 1 0 8.8 0 a4.4 4.4 0 1 0 -8.8 0zM60.85 317.32L63.14 316.37L55.2 297.19L52.9 298.14zM49.65 297.67 a4.4 4.4 0 1 0 8.8 0 a4.4 4.4 0 1 0 -8.8 0zM78.91 313.24L81.4 313.24L81.4 293.55L78.91 293.55zM75.75 293.55 a4.4 4.4 0 1 0 8.8 0 a4.4 4.4 0 1 0 -8.8 0zM97.16 316.37L99.46 317.32L107.41 298.12L105.12 297.16zM101.87 297.64 a4.4 4.4 0 1 0 8.8 0 a4.4 4.4 0 1 0 -8.8 0zM112.82 326.25L114.58 328.01L126.3 316.29L124.54 314.54zM121.02 315.42 a4.4 4.4 0 1 0 8.8 0 a4.4 4.4 0 1 0 -8.8 0zM123.51 341.38L124.46 343.67L130.61 341.13L129.66 338.83zM125.73 339.98 a4.4 4.4 0 1 0 8.8 0 a4.4 4.4 0 1 0 -8.8 0zM32.69 360.68 a47.46 47.46 0 1 0 94.92 0 a47.46 47.46 0 1 0 -94.92 0z" fill="#488fdb"></path><path d="M33.34 368.51 A46.462399999999995 46.462399999999995 0 0 1 96.69 316.19M96.69 316.19 A94.92479999999999 94.92479999999999 0 0 0 33.34 368.51" fill="#2672c3" fill-rule="nonzero"></path><path d="M75.01 323.57 a9.49 9.49 0 1 0 18.98 0 a9.49 9.49 0 1 0 -18.98 0zM90.14 369.27 a9.49 9.49 0 1 0 18.98 0 a9.49 9.49 0 1 0 -18.98 0zM40.17 385.46 a2.37 2.37 0 1 0 4.74 0 a2.37 2.37 0 1 0 -4.74 0zM36.13 345.67 a9.49 9.49 0 1 0 18.98 0 a9.49 9.49 0 1 0 -18.98 0zM57.19 376.58 a9.49 9.49 0 1 0 18.98 0 a9.49 9.49 0 1 0 -18.98 0zM120.84 352.65 a2.85 2.85 0 1 0 5.7 0 a2.85 2.85 0 1 0 -5.7 0zM72.24 402.95 a4.75 4.75 0 1 0 9.5 0 a4.75 4.75 0 1 0 -9.5 0zM79.36 358.62 a1.9 1.9 0 1 0 3.8 0 a1.9 1.9 0 1 0 -3.8 0zM63.88 338.59 a3.32 3.32 0 1 0 6.64 0 a3.32 3.32 0 1 0 -6.64 0zM101.69 333.13 a4.27 4.27 0 1 0 8.54 0 a4.27 4.27 0 1 0 -8.54 0z" fill="#2672c3" fill-rule="nonzero"></path><path d="M1072.06 162.79L1072.06 165.9L1092.16 165.9L1092.16 162.79zM1086.66 164.34 a5.5 5.5 0 1 0 11 0 a5.5 5.5 0 1 0 -11 0zM1068.14 185.6L1066.95 188.47L1083.86 195.48L1085.05 192.61zM1078.96 194.04 a5.5 5.5 0 1 0 11 0 a5.5 5.5 0 1 0 -11 0zM1055.79 205.18L1053.59 207.38L1074.26 228.04L1076.45 225.84zM1069.85 226.94 a5.5 5.5 0 1 0 11 0 a5.5 5.5 0 1 0 -11 0zM1036.89 218.54L1034.02 219.73L1038.33 230.14L1041.2 228.95zM1034.26 229.55 a5.5 5.5 0 1 0 11 0 a5.5 5.5 0 1 0 -11 0zM1014.31 223.65L1011.2 223.65L1011.2 241.66L1014.31 241.66zM1007.26 241.66 a5.5 5.5 0 1 0 11 0 a5.5 5.5 0 1 0 -11 0zM991.49 219.73L988.62 218.54L985.48 226.15L988.34 227.33zM981.41 226.74 a5.5 5.5 0 1 0 11 0 a5.5 5.5 0 1 0 -11 0zM971.92 207.38L969.72 205.18L961.35 213.55L963.54 215.75zM956.95 214.65 a5.5 5.5 0 1 0 11 0 a5.5 5.5 0 1 0 -11 0zM958.56 188.47L957.37 185.6L936.65 194.18L937.84 197.05zM931.75 195.62 a5.5 5.5 0 1 0 11 0 a5.5 5.5 0 1 0 -11 0zM953.45 165.9L953.45 162.79L942.67 162.79L942.67 165.9zM937.17 164.34 a5.5 5.5 0 1 0 11 0 a5.5 5.5 0 1 0 -11 0zM957.37 143.08L958.56 140.21L936.46 131.06L935.27 133.93zM930.36 132.49 a5.5 5.5 0 1 0 11 0 a5.5 5.5 0 1 0 -11 0zM969.72 123.5L971.92 121.31L951.99 101.38L949.79 103.58zM945.39 102.48 a5.5 5.5 0 1 0 11 0 a5.5 5.5 0 1 0 -11 0zM988.62 110.14L991.49 108.96L984.94 93.14L982.07 94.33zM978.01 93.73 a5.5 5.5 0 1 0 11 0 a5.5 5.5 0 1 0 -11 0zM1011.2 105.04L1014.31 105.04L1014.31 88.3L1011.2 88.3zM1007.26 88.3 a5.5 5.5 0 1 0 11 0 a5.5 5.5 0 1 0 -11 0zM1034.02 108.96L1036.89 110.14L1048.05 83.19L1045.18 82zM1041.12 82.59 a5.5 5.5 0 1 0 11 0 a5.5 5.5 0 1 0 -11 0zM1053.59 121.31L1055.79 123.5L1062.48 116.82L1060.28 114.62zM1055.88 115.72 a5.5 5.5 0 1 0 11 0 a5.5 5.5 0 1 0 -11 0zM1066.95 140.21L1068.14 143.08L1090.82 133.69L1089.63 130.82zM1084.72 132.26 a5.5 5.5 0 1 0 11 0 a5.5 5.5 0 1 0 -11 0zM953.43 164.34 a59.33 59.33 0 1 0 118.66 0 a59.33 59.33 0 1 0 -118.66 0z" fill="#488fdb"></path><path d="M1008.35 105.18 A58.328 58.328 0 0 1 1066.25 190M1066.25 190 A118.656 118.656 0 0 0 1008.35 105.18" fill="#2672c3" fill-rule="nonzero"></path><path d="M1016.13 211.63 a10.09 10.09 0 1 0 20.18 0 a10.09 10.09 0 1 0 -20.18 0zM955.91 150.29 a6.53 6.53 0 1 0 13.06 0 a6.53 6.53 0 1 0 -13.06 0zM974.24 174.03 a11.87 11.87 0 1 0 23.74 0 a11.87 11.87 0 1 0 -23.74 0zM982.81 142.9 a7.12 7.12 0 1 0 14.24 0 a7.12 7.12 0 1 0 -14.24 0zM1022.85 165.45 a11.87 11.87 0 1 0 23.74 0 a11.87 11.87 0 1 0 -23.74 0zM1058.54 168.57 a6.53 6.53 0 1 0 13.06 0 a6.53 6.53 0 1 0 -13.06 0zM1008.83 137.07 a7.71 7.71 0 1 0 15.42 0 a7.71 7.71 0 1 0 -15.42 0zM1039.58 135.31 a9.49 9.49 0 1 0 18.98 0 a9.49 9.49 0 1 0 -18.98 0zM1001.25 195.75 a4.15 4.15 0 1 0 8.3 0 a4.15 4.15 0 1 0 -8.3 0zM976.5 206.74 a7.71 7.71 0 1 0 15.42 0 a7.71 7.71 0 1 0 -15.42 0z" fill="#2672c3" fill-rule="nonzero"></path><path d="M1371.49 297.75L1371.49 300.24L1394.77 300.24L1394.77 297.75zM1390.37 299 a4.4 4.4 0 1 0 8.8 0 a4.4 4.4 0 1 0 -8.8 0zM1368.35 316.01L1367.4 318.3L1380.43 323.7L1381.39 321.4zM1376.51 322.55 a4.4 4.4 0 1 0 8.8 0 a4.4 4.4 0 1 0 -8.8 0zM1358.47 331.67L1356.71 333.42L1362.61 339.32L1364.37 337.56zM1359.09 338.44 a4.4 4.4 0 1 0 8.8 0 a4.4 4.4 0 1 0 -8.8 0zM1343.34 342.36L1341.05 343.31L1346.12 355.55L1348.42 354.6zM1342.87 355.07 a4.4 4.4 0 1 0 8.8 0 a4.4 4.4 0 1 0 -8.8 0zM1325.28 346.44L1322.8 346.44L1322.8 356.07L1325.28 356.07zM1319.64 356.07 a4.4 4.4 0 1 0 8.8 0 a4.4 4.4 0 1 0 -8.8 0zM1307.03 343.31L1304.74 342.36L1298.67 357.01L1300.96 357.96zM1295.41 357.48 a4.4 4.4 0 1 0 8.8 0 a4.4 4.4 0 1 0 -8.8 0zM1291.37 333.42L1289.61 331.67L1276.2 345.08L1277.96 346.84zM1272.68 345.96 a4.4 4.4 0 1 0 8.8 0 a4.4 4.4 0 1 0 -8.8 0zM1280.68 318.3L1279.73 316.01L1265.49 321.9L1266.44 324.2zM1261.57 323.05 a4.4 4.4 0 1 0 8.8 0 a4.4 4.4 0 1 0 -8.8 0zM1276.59 300.24L1276.59 297.75L1264.89 297.75L1264.89 300.24zM1260.49 299 a4.4 4.4 0 1 0 8.8 0 a4.4 4.4 0 1 0 -8.8 0zM1279.73 281.99L1280.68 279.69L1269.18 274.93L1268.23 277.22zM1264.3 276.07 a4.4 4.4 0 1 0 8.8 0 a4.4 4.4 0 1 0 -8.8 0zM1289.61 266.33L1291.37 264.57L1278.03 251.23L1276.28 252.99zM1272.75 252.11 a4.4 4.4 0 1 0 8.8 0 a4.4 4.4 0 1 0 -8.8 0zM1304.74 255.64L1307.03 254.69L1299.23 235.85L1296.93 236.8zM1293.68 236.32 a4.4 4.4 0 1 0 8.8 0 a4.4 4.4 0 1 0 -8.8 0zM1322.8 251.55L1325.28 251.55L1325.28 240.82L1322.8 240.82zM1319.64 240.82 a4.4 4.4 0 1 0 8.8 0 a4.4 4.4 0 1 0 -8.8 0zM1341.05 254.69L1343.34 255.64L1349.33 241.18L1347.04 240.23zM1343.79 240.7 a4.4 4.4 0 1 0 8.8 0 a4.4 4.4 0 1 0 -8.8 0zM1356.71 264.57L1358.47 266.33L1363.5 261.3L1361.74 259.54zM1358.22 260.42 a4.4 4.4 0 1 0 8.8 0 a4.4 4.4 0 1 0 -8.8 0zM1367.4 279.69L1368.35 281.99L1387.52 274.05L1386.57 271.75zM1382.64 272.9 a4.4 4.4 0 1 0 8.8 0 a4.4 4.4 0 1 0 -8.8 0zM1276.58 299 a47.46 47.46 0 1 0 94.92 0 a47.46 47.46 0 1 0 -94.92 0z" fill="#488fdb"></path><path d="M1289.5 331.55 A46.462399999999995 46.462399999999995 0 0 1 1313.02 252.83M1313.02 252.83 A94.92479999999999 94.92479999999999 0 0 0 1289.5 331.55" fill="#2672c3" fill-rule="nonzero"></path><path d="M1294.26 281.34 a9.49 9.49 0 1 0 18.98 0 a9.49 9.49 0 1 0 -18.98 0zM1307.46 308.59 a9.49 9.49 0 1 0 18.98 0 a9.49 9.49 0 1 0 -18.98 0zM1323.1 280.68 a3.32 3.32 0 1 0 6.64 0 a3.32 3.32 0 1 0 -6.64 0zM1314.2 329.67 a1.9 1.9 0 1 0 3.8 0 a1.9 1.9 0 1 0 -3.8 0zM1334.25 294.39 a8.07 8.07 0 1 0 16.14 0 a8.07 8.07 0 1 0 -16.14 0zM1345.25 328.48 a6.64 6.64 0 1 0 13.28 0 a6.64 6.64 0 1 0 -13.28 0zM1281.63 291.72 a2.85 2.85 0 1 0 5.7 0 a2.85 2.85 0 1 0 -5.7 0zM1328.62 333.54 a3.8 3.8 0 1 0 7.6 0 a3.8 3.8 0 1 0 -7.6 0zM1360.38 310.32 a4.75 4.75 0 1 0 9.5 0 a4.75 4.75 0 1 0 -9.5 0zM1344.68 268.09 a6.17 6.17 0 1 0 12.34 0 a6.17 6.17 0 1 0 -12.34 0z" fill="#2672c3" fill-rule="nonzero"></path><path d="M718.55 82.59L718.55 85.07L727.8 85.07L727.8 82.59zM723.4 83.83 a4.4 4.4 0 1 0 8.8 0 a4.4 4.4 0 1 0 -8.8 0zM715.41 100.84L714.46 103.13L722.17 106.32L723.12 104.03zM718.24 105.18 a4.4 4.4 0 1 0 8.8 0 a4.4 4.4 0 1 0 -8.8 0zM705.53 116.5L703.78 118.26L715.75 130.23L717.5 128.47zM712.23 129.35 a4.4 4.4 0 1 0 8.8 0 a4.4 4.4 0 1 0 -8.8 0zM690.41 127.19L688.11 128.14L695.12 145.04L697.41 144.09zM691.86 144.57 a4.4 4.4 0 1 0 8.8 0 a4.4 4.4 0 1 0 -8.8 0zM672.35 131.27L669.86 131.27L669.86 147.63L672.35 147.63zM666.7 147.63 a4.4 4.4 0 1 0 8.8 0 a4.4 4.4 0 1 0 -8.8 0zM654.1 128.14L651.8 127.19L648.42 135.35L650.71 136.31zM645.17 135.83 a4.4 4.4 0 1 0 8.8 0 a4.4 4.4 0 1 0 -8.8 0zM638.43 118.26L636.68 116.5L632.44 120.73L634.2 122.49zM628.92 121.61 a4.4 4.4 0 1 0 8.8 0 a4.4 4.4 0 1 0 -8.8 0zM627.75 103.13L626.79 100.84L621.11 103.19L622.06 105.49zM617.19 104.34 a4.4 4.4 0 1 0 8.8 0 a4.4 4.4 0 1 0 -8.8 0zM623.66 85.07L623.66 82.59L611.08 82.59L611.08 85.07zM606.68 83.83 a4.4 4.4 0 1 0 8.8 0 a4.4 4.4 0 1 0 -8.8 0zM626.79 66.82L627.75 64.52L618.69 60.77L617.74 63.07zM613.82 61.92 a4.4 4.4 0 1 0 8.8 0 a4.4 4.4 0 1 0 -8.8 0zM636.68 51.16L638.43 49.4L630.35 41.32L628.59 43.07zM625.07 42.2 a4.4 4.4 0 1 0 8.8 0 a4.4 4.4 0 1 0 -8.8 0zM651.8 40.47L654.1 39.52L648.77 26.66L646.47 27.61zM643.22 27.13 a4.4 4.4 0 1 0 8.8 0 a4.4 4.4 0 1 0 -8.8 0zM669.86 36.38L672.35 36.38L672.35 28.25L669.86 28.25zM666.7 28.25 a4.4 4.4 0 1 0 8.8 0 a4.4 4.4 0 1 0 -8.8 0zM688.11 39.52L690.41 40.47L692.77 34.77L690.47 33.82zM687.22 34.29 a4.4 4.4 0 1 0 8.8 0 a4.4 4.4 0 1 0 -8.8 0zM703.78 49.4L705.53 51.16L714.94 41.75L713.19 39.99zM709.67 40.87 a4.4 4.4 0 1 0 8.8 0 a4.4 4.4 0 1 0 -8.8 0zM714.46 64.52L715.41 66.82L728.28 61.49L727.33 59.19zM723.41 60.34 a4.4 4.4 0 1 0 8.8 0 a4.4 4.4 0 1 0 -8.8 0zM623.64 83.83 a47.46 47.46 0 1 0 94.92 0 a47.46 47.46 0 1 0 -94.92 0z" fill="#488fdb"></path><path d="M706.38 115.59 A46.462399999999995 46.462399999999995 0 0 1 626 98.59M626 98.59 A94.92479999999999 94.92479999999999 0 0 0 706.38 115.59" fill="#2672c3" fill-rule="nonzero"></path><path d="M630.8 91.1 a9.49 9.49 0 1 0 18.98 0 a9.49 9.49 0 1 0 -18.98 0zM667.01 39.78 a3.32 3.32 0 1 0 6.64 0 a3.32 3.32 0 1 0 -6.64 0zM661.55 112.86 a9.49 9.49 0 1 0 18.98 0 a9.49 9.49 0 1 0 -18.98 0zM674.53 85.67 a9.49 9.49 0 1 0 18.98 0 a9.49 9.49 0 1 0 -18.98 0zM637.47 55.4 a9.49 9.49 0 1 0 18.98 0 a9.49 9.49 0 1 0 -18.98 0zM681.31 59.93 a6.64 6.64 0 1 0 13.28 0 a6.64 6.64 0 1 0 -13.28 0zM640.74 116.29 a5.7 5.7 0 1 0 11.4 0 a5.7 5.7 0 1 0 -11.4 0zM706.74 78.28 a5.7 5.7 0 1 0 11.4 0 a5.7 5.7 0 1 0 -11.4 0zM665.82 71 a2.37 2.37 0 1 0 4.74 0 a2.37 2.37 0 1 0 -4.74 0zM697.65 100.47 a2.37 2.37 0 1 0 4.74 0 a2.37 2.37 0 1 0 -4.74 0z" fill="#2672c3" fill-rule="nonzero"></path><path d="M1732.36 711.77L1732.36 714.25L1753.24 714.25L1753.24 711.77zM1748.84 713.01 a4.4 4.4 0 1 0 8.8 0 a4.4 4.4 0 1 0 -8.8 0zM1729.22 730.02L1728.27 732.32L1738.8 736.68L1739.75 734.38zM1734.88 735.53 a4.4 4.4 0 1 0 8.8 0 a4.4 4.4 0 1 0 -8.8 0zM1719.34 745.68L1717.58 747.44L1725.1 754.96L1726.86 753.21zM1721.58 754.08 a4.4 4.4 0 1 0 8.8 0 a4.4 4.4 0 1 0 -8.8 0zM1704.21 756.37L1701.92 757.32L1704.47 763.48L1706.77 762.53zM1701.22 763.01 a4.4 4.4 0 1 0 8.8 0 a4.4 4.4 0 1 0 -8.8 0zM1686.15 760.46L1683.67 760.46L1683.67 770.49L1686.15 770.49zM1680.51 770.49 a4.4 4.4 0 1 0 8.8 0 a4.4 4.4 0 1 0 -8.8 0zM1667.9 757.32L1665.61 756.37L1659.96 770L1662.26 770.95zM1656.71 770.47 a4.4 4.4 0 1 0 8.8 0 a4.4 4.4 0 1 0 -8.8 0zM1652.24 747.44L1650.48 745.68L1634.58 761.58L1636.34 763.34zM1631.06 762.46 a4.4 4.4 0 1 0 8.8 0 a4.4 4.4 0 1 0 -8.8 0zM1641.55 732.32L1640.6 730.02L1626.3 735.94L1627.25 738.24zM1622.37 737.09 a4.4 4.4 0 1 0 8.8 0 a4.4 4.4 0 1 0 -8.8 0zM1637.46 714.25L1637.46 711.77L1625.23 711.77L1625.23 714.25zM1620.83 713.01 a4.4 4.4 0 1 0 8.8 0 a4.4 4.4 0 1 0 -8.8 0zM1640.6 696L1641.55 693.71L1629.28 688.62L1628.33 690.92zM1624.41 689.77 a4.4 4.4 0 1 0 8.8 0 a4.4 4.4 0 1 0 -8.8 0zM1650.48 680.34L1652.24 678.58L1643.05 669.39L1641.29 671.15zM1637.77 670.27 a4.4 4.4 0 1 0 8.8 0 a4.4 4.4 0 1 0 -8.8 0zM1665.61 669.65L1667.9 668.7L1661.23 652.6L1658.94 653.55zM1655.68 653.07 a4.4 4.4 0 1 0 8.8 0 a4.4 4.4 0 1 0 -8.8 0zM1683.67 665.56L1686.15 665.56L1686.15 659.28L1683.67 659.28zM1680.51 659.28 a4.4 4.4 0 1 0 8.8 0 a4.4 4.4 0 1 0 -8.8 0zM1701.92 668.7L1704.21 669.65L1710.74 653.9L1708.44 652.95zM1705.19 653.42 a4.4 4.4 0 1 0 8.8 0 a4.4 4.4 0 1 0 -8.8 0zM1717.58 678.58L1719.34 680.34L1724.22 675.46L1722.46 673.7zM1718.94 674.58 a4.4 4.4 0 1 0 8.8 0 a4.4 4.4 0 1 0 -8.8 0zM1728.27 693.71L1729.22 696L1734.82 693.68L1733.87 691.39zM1729.94 692.53 a4.4 4.4 0 1 0 8.8 0 a4.4 4.4 0 1 0 -8.8 0zM1637.45 713.01 a47.46 47.46 0 1 0 94.92 0 a47.46 47.46 0 1 0 -94.92 0z" fill="#488fdb"></path><path d="M1725.91 736.93 A46.462399999999995 46.462399999999995 0 0 1 1643.75 736.64M1643.75 736.64 A94.92479999999999 94.92479999999999 0 0 0 1725.91 736.93" fill="#2672c3" fill-rule="nonzero"></path><path d="M1677.37 741.16 a9.49 9.49 0 1 0 18.98 0 a9.49 9.49 0 1 0 -18.98 0zM1699.01 688.46 a9.49 9.49 0 1 0 18.98 0 a9.49 9.49 0 1 0 -18.98 0zM1691.29 707.93 a4.27 4.27 0 1 0 8.54 0 a4.27 4.27 0 1 0 -8.54 0zM1663.11 701.53 a9.49 9.49 0 1 0 18.98 0 a9.49 9.49 0 1 0 -18.98 0zM1665.89 675.82 a6.64 6.64 0 1 0 13.28 0 a6.64 6.64 0 1 0 -13.28 0zM1637.81 712.16 a8.07 8.07 0 1 0 16.14 0 a8.07 8.07 0 1 0 -16.14 0zM1704.6 721.43 a7.12 7.12 0 1 0 14.24 0 a7.12 7.12 0 1 0 -14.24 0zM1669.82 725.31 a2.37 2.37 0 1 0 4.74 0 a2.37 2.37 0 1 0 -4.74 0zM1706.02 750.2 a2.85 2.85 0 1 0 5.7 0 a2.85 2.85 0 1 0 -5.7 0zM1648.97 733.62 a5.22 5.22 0 1 0 10.44 0 a5.22 5.22 0 1 0 -10.44 0z" fill="#2672c3" fill-rule="nonzero"></path></g><defs><mask id="SvgjsMask1753"><rect width="1920" height="800" fill="#ffffff"></rect></mask><linearGradient x1="14.58%" y1="-35%" x2="85.42%" y2="135%" gradientUnits="userSpaceOnUse" id="SvgjsLinearGradient1754"><stop stop-color="#0e2a47" offset="0"></stop><stop stop-color="rgba(26, 0, 158, 1)" offset="0.55"></stop></linearGradient></defs></svg>